<svg id="Capa_1" data-name="Capa 1" xmlns="http://www.w3.org/2000/svg" viewBox="0 0 167.6 55.5"><defs><style>.cls-1{isolation:isolate;}.cls-2{fill:#fff;}</style></defs><g id="Grupo_1" data-name="Grupo 1"><g class="cls-1"><path class="cls-2" d="M284.7,420.8a22.2,22.2,0,0,1-1.8,9.2,13.9,13.9,0,0,1-13.3,8.2,14.7,14.7,0,0,1-7.8-2.1,13.4,13.4,0,0,1-5.4-6.1,19.9,19.9,0,0,1-1.9-9v-1.8a21.9,21.9,0,0,1,1.8-9.2,15.1,15.1,0,0,1,21.2-6.2,14,14,0,0,1,5.3,6.2,20.4,20.4,0,0,1,1.9,9.2Zm-7.4-1.6c0-3.8-.7-6.6-2-8.5a6.3,6.3,0,0,0-5.7-2.9,6.4,6.4,0,0,0-5.7,2.8c-1.3,1.9-2,4.7-2,8.4v1.8c0,3.6.6,6.4,2,8.4a6.4,6.4,0,0,0,5.7,3,6.3,6.3,0,0,0,5.7-2.9c1.3-1.9,2-4.7,2-8.4Z" transform="translate(-213.9 -392.2)"/><path class="cls-2" d="M301.3,418.2l7.4-16h8L305,424.8v12.9h-7.5V424.8l-11.6-22.6h8Z" transform="translate(-213.9 -392.2)"/><path class="cls-2" d="M341.3,422.3H327.2v9.6h16.5v5.8H319.9V402.2h23.8v5.9H327.2v8.5h14.1Z" transform="translate(-213.9 -392.2)"/></g><path id="Icon_open-audio" data-name="Icon open-audio" class="cls-2" d="M225.3,392.2a39.5,39.5,0,0,0,0,55.5l7.1-7.1a29.4,29.4,0,0,1-8.7-20.9,28.3,28.3,0,0,1,8.7-20.5l-7.1-7Zm14.1,13.9a19.7,19.7,0,0,0-5.8,13.9,20.4,20.4,0,0,0,5.8,14.2l6.8-7.1a10.2,10.2,0,0,1-2.8-7.1,9.7,9.7,0,0,1,2.8-6.8l-6.8-7.1Z" transform="translate(-213.9 -392.2)"/><path id="Icon_open-audio-2" data-name="Icon open-audio-2" class="cls-2" d="M370.1,447.7a39.5,39.5,0,0,0,0-55.5l-7.1,7.1a29.4,29.4,0,0,1,8.7,20.9,28.3,28.3,0,0,1-8.7,20.5l7.1,7ZM356,433.8a19.7,19.7,0,0,0,5.8-13.9,20.4,20.4,0,0,0-5.8-14.2l-6.8,7.1a10.2,10.2,0,0,1,2.8,7.1,9.7,9.7,0,0,1-2.8,6.8l6.8,7.1Z" transform="translate(-213.9 -392.2)"/></g></svg>