<?xml version="1.0" encoding="utf-8"?>
<!-- Generator: Adobe Illustrator 25.1.0, SVG Export Plug-In . SVG Version: 6.00 Build 0)  -->
<svg version="1.1" id="Capa_1" xmlns="http://www.w3.org/2000/svg" xmlns:xlink="http://www.w3.org/1999/xlink" x="0px" y="0px"
	 viewBox="0 0 207 66" style="enable-background:new 0 0 207 66;" xml:space="preserve">
<style type="text/css">
	.st0{fill:#FFFFFF;}
	.st1{font-family:'Roboto-Bold';}
	.st2{font-size:50px;}
</style>
<g id="Grupo_1" transform="translate(-23 -16.334)">
	<text transform="matrix(1 0 0 1 81.748 65.334)" class="st0 st1 st2">OYE</text>
	<path id="Icon_open-audio" class="st0" d="M54.7,22.9c-7.3,7.3-11.4,17.3-11.4,27.6c-0.1,10.5,4,20.5,11.4,27.9l7.1-7.1
		c-5.6-5.5-8.7-13.1-8.7-20.9c0-7.7,3.1-15.2,8.7-20.5L54.7,22.9L54.7,22.9z M68.8,36.8c-3.7,3.7-5.8,8.7-5.8,13.9
		c0,5.3,2.1,10.4,5.8,14.2l6.8-7.1c-1.8-1.9-2.8-4.4-2.8-7.1c0-2.5,1-5,2.8-6.8L68.8,36.8L68.8,36.8z"/>
	<path id="Icon_open-audio-2" class="st0" d="M199.5,78.4c7.3-7.3,11.4-17.3,11.4-27.6c0.1-10.5-4-20.5-11.4-27.9l-7.1,7.1
		c5.6,5.5,8.7,13.1,8.7,20.9c0,7.7-3.1,15.2-8.7,20.5L199.5,78.4L199.5,78.4z M185.4,64.5c3.7-3.7,5.8-8.7,5.8-13.9
		c0-5.3-2.1-10.4-5.8-14.2l-6.8,7.1c1.8,1.9,2.8,4.4,2.8,7.1c0,2.5-1,5-2.8,6.8L185.4,64.5L185.4,64.5z"/>
</g>
</svg>
